<?xml version="1.0" encoding="utf-8"?>
<!-- Generator: Adobe Illustrator 24.1.1, SVG Export Plug-In . SVG Version: 6.00 Build 0)  -->
<svg version="1.1" id="Layer_1" xmlns="http://www.w3.org/2000/svg" xmlns:xlink="http://www.w3.org/1999/xlink" x="0px" y="0px"
	 viewBox="0 0 448 512" style="enable-background:new 0 0 448 512;" xml:space="preserve">
<style type="text/css">
	.st0{fill:#FFFFFF;}
	.st1{fill:#0A66C2;}
</style>
<rect x="6" y="74" class="st0" width="396" height="381"/>
<path class="st1" d="M416,44.9H31.9C14.3,44.9,0,59.4,0,77.2v383.4c0,17.8,14.3,32.3,31.9,32.3H416c17.6,0,32-14.5,32-32.3V77.2
	C448,59.4,433.6,44.9,416,44.9z M135.4,428.9H69V215.1h66.5v213.8H135.4z M102.2,185.9c-21.3,0-38.5-17.3-38.5-38.5
	s17.2-38.5,38.5-38.5c21.2,0,38.5,17.3,38.5,38.5C140.7,168.7,123.5,185.9,102.2,185.9z M384.3,428.9h-66.4v-104
	c0-24.8-0.5-56.7-34.5-56.7c-34.6,0-39.9,27-39.9,54.9v105.8h-66.4V215.1h63.7v29.2h0.9c8.9-16.8,30.6-34.5,62.9-34.5
	c67.2,0,79.7,44.3,79.7,101.9V428.9z"/>
</svg>
