<svg id="Layer_1" data-name="Layer 1" xmlns="http://www.w3.org/2000/svg" viewBox="0 0 448 448"><defs><style>.cls-1{fill:#fff;}.cls-2{fill:#0a66c2;}</style></defs><rect class="cls-1" x="6" y="29.1" width="396" height="381"/><path class="cls-2" d="M416,44.9H31.9A32.14,32.14,0,0,0,0,77.2V460.6a32.14,32.14,0,0,0,31.9,32.3H416a32.22,32.22,0,0,0,32-32.3V77.2A32.22,32.22,0,0,0,416,44.9Zm-280.6,384H69V215.1h66.5V428.9Zm-33.2-243a38.5,38.5,0,1,1,38.5-38.5A38.52,38.52,0,0,1,102.2,185.9Zm282.1,243H317.9v-104c0-24.8-.5-56.7-34.5-56.7-34.6,0-39.9,27-39.9,54.9V428.9H177.1V215.1h63.7v29.2h.9c8.9-16.8,30.6-34.5,62.9-34.5,67.2,0,79.7,44.3,79.7,101.9Z" transform="translate(0 -44.9)"/></svg>